# xmcd CD database file
#
# Track frame offsets:
#	150
#	12495
#	26795
#	42944
#	58166
#	73214
#	86890
#	100738
#	111698
#	124076
#
# Disc length: 1877 seconds
#
# Revision: 0
# Processed by: cddbd v1.5.2PL0 Copyright (c) Steve Scherf et al.
# Submitted via: CDex 1.70beta2
#
DISCID=9507530a
DTITLE=MoC - Men of Country - 30 #1 Hits - D1
DYEAR=2010
DGENRE=Country
TTITLE0=Johnny Paycheck - Take This Job And Shove It (Johnny Paycheck)
TTITLE1=T. Graham Brown  - Hell And High Water
TTITLE2=T.G. Sheppard - Strong Heart
TTITLE3=Exile - I Donﾒt Want To Be A Memory
TTITLE4=Doug Stone - Why Didn't I Think of That
TTITLE5=Jack Greene - You Are My Treasure
TTITLE6=Mickey Gilley - You Don't Know Me
TTITLE7=Don Gibson - Oh Lonesome Me
TTITLE8=Porter Wagoner  - A Satisfied Mind
TTITLE9=T.G. Sheppard - Last Cheaters Waltz
EXTD=YEAR: 2010
EXTT0=
EXTT1=
EXTT2=
EXTT3=
EXTT4=
EXTT5=
EXTT6=
EXTT7=
EXTT8=
EXTT9=
PLAYORDER=
